<?xml version="1.0" encoding="utf-8"?>
<!-- Generator: Adobe Illustrator 24.1.2, SVG Export Plug-In . SVG Version: 6.00 Build 0)  -->
<svg version="1.1" id="Layer_1" xmlns="http://www.w3.org/2000/svg" xmlns:xlink="http://www.w3.org/1999/xlink" x="0px" y="0px"
	 viewBox="0 0 41.7 57.3" style="enable-background:new 0 0 41.7 57.3;" xml:space="preserve">
<path d="M39.2,12.6C35.8,5.2,28.4,0.4,20.3,0.4l-14.8,0c-2.8,0-5,2.2-5,5v46c0,2.8,2.2,5,5,5H36c2.8,0,5-2.2,5-5V21.2
	C41,18.2,40.4,15.3,39.2,12.6z M29.5,4.8c3,1.7,5.5,4.2,7.2,7.2h-4.2c-1.7,0-3-1.3-3-3L29.5,4.8z M39,51.4c0,1.7-1.3,3-3,3H5.5
	c-1.7,0-3-1.3-3-3v-46c0-1.7,1.3-3,3-3h14.8c2.5,0,4.9,0.5,7.2,1.4V9c0,2.8,2.2,5,5,5h5.2c0.9,2.3,1.4,4.7,1.4,7.2V51.4z"/>
<path d="M34.2,15.4h-27c-0.6,0-1,0.4-1,1v32c0,0.6,0.4,1,1,1h27c0.6,0,1-0.4,1-1v-32C35.2,15.8,34.8,15.4,34.2,15.4z M14.1,47.4H8.2
	v-6h5.9L14.1,47.4z M14.1,39.4H8.2v-6h5.9L14.1,39.4z M14.1,31.4H8.2v-6h5.9L14.1,31.4z M14.1,23.4H8.2v-6h5.9L14.1,23.4z
	 M33.2,47.4H16.1v-6h17.1V47.4z M33.2,39.4H16.1v-6h17.1V39.4z M33.2,31.4H16.1v-6h17.1V31.4z M33.2,23.4H16.1v-6h17.1V23.4z"/>
<path d="M7.2,13.4l13.5,0c0.6,0,1-0.5,1-1c0-0.5-0.4-1-1-1l-13.5,0c-0.6,0-1,0.5-1,1C6.3,13,6.7,13.4,7.2,13.4z"/>
<path d="M7.2,9.4l3.8,0l4.1,0c0.6,0,1-0.5,1-1c0-0.5-0.4-1-1-1l-7.9,0c-0.6,0-1,0.5-1,1C6.3,9,6.7,9.4,7.2,9.4z"/>
</svg>
