<?xml version="1.0" encoding="utf-8"?>
<!-- Generator: Adobe Illustrator 27.8.1, SVG Export Plug-In . SVG Version: 6.00 Build 0)  -->
<svg version="1.1" id="图层_1" xmlns="http://www.w3.org/2000/svg" xmlns:xlink="http://www.w3.org/1999/xlink" x="0px" y="0px"
	 viewBox="0 0 800 800" style="enable-background:new 0 0 800 800;" xml:space="preserve">
<style type="text/css">
	.st0{fill-rule:evenodd;clip-rule:evenodd;}
</style>
<g id="Page-1">
	<g id="Combined-Shape" transform="translate(27.581722, 33.830111)">
		<path class="st0" d="M577.6,56.1V95c17.7,6.2,33.8,15.7,47.8,27.7l33.6-19.5l50.3,87.4l-33.6,19.4c1.6,8.9,2.5,18.2,2.5,27.7
			s-0.9,18.7-2.5,27.7l33.6,19.4l-50.3,87.4l-33.6-19.5c-13.9,12-30.1,21.5-47.8,27.7v38.9H477v-38.9c-17.7-6.2-33.8-15.7-47.8-27.7
			l-33.6,19.5l-50.3-87.4l33.6-19.4c-1.6-8.9-2.5-18.2-2.5-27.7c0-9.5,0.9-18.7,2.5-27.7l-33.6-19.4l50.3-87.4l33.6,19.5
			c13.9-12,30.1-21.5,47.8-27.7V56.1H577.6z M527.3,177.1c-33.4,0-60.4,27.1-60.4,60.6s27.1,60.6,60.4,60.6s60.4-27.1,60.4-60.6
			S560.7,177.1,527.3,177.1z"/>
	</g>
	<path class="st0" d="M-198.2,42.8"/>
</g>
<g transform="translate(0 -540.36)">
	<g>
		<g>
			<path d="M798.8,1272.6c0-0.3-0.2-0.8-0.2-1.1c0-0.2,0-0.3,0-0.3c-0.2-0.5-0.2-1-0.3-1.5v-0.2c-0.2-0.5-0.3-1-0.5-1.3v-0.2
				c-0.2-0.5-0.3-0.8-0.7-1.3c0,0,0-0.2-0.2-0.2c-0.2-0.3-0.5-0.8-0.7-1.1c0-0.2-0.2-0.2-0.2-0.3c-0.2-0.3-0.5-0.7-0.7-1
				c0-0.2-0.2-0.2-0.2-0.3c-0.3-0.3-0.7-0.8-1-1.1l-50-50c-6.4-6.4-16.7-6.4-23.1,0c-6.4,6.4-6.4,16.7,0,23.1l22,22H81.7V596.3
				l22,22c3.3,3.3,7.4,4.8,11.6,4.8s8.4-1.6,11.6-4.8c6.4-6.4,6.4-16.7,0-23.1l-50-50l-0.2-0.2c-0.3-0.3-0.7-0.7-1-1
				c-0.2-0.2-0.3-0.3-0.7-0.5c-0.2-0.2-0.5-0.3-0.7-0.5c-0.2-0.2-0.5-0.3-0.7-0.3c-0.2-0.2-0.5-0.3-0.7-0.5
				c-0.2-0.2-0.5-0.2-0.7-0.3c-0.3-0.2-0.5-0.3-0.8-0.3c-0.2-0.2-0.5-0.2-0.7-0.2c-0.3-0.2-0.7-0.2-0.8-0.3c-0.2,0-0.5-0.2-0.7-0.2
				c-0.3,0-0.7-0.2-1-0.2c-0.2,0-0.5,0-0.7-0.2c-0.3,0-0.7-0.2-1-0.2c-0.3,0-0.7,0-1.1,0c-0.2,0-0.3,0-0.5,0c-0.2,0-0.3,0-0.5,0
				c-0.3,0-0.8,0-1.1,0c-0.3,0-0.7,0.2-0.8,0.2c-0.2,0-0.5,0-0.7,0.2c-0.3,0-0.7,0.2-1,0.2c-0.2,0-0.5,0.2-0.7,0.2
				c-0.3,0.2-0.5,0.2-0.8,0.3c-0.2,0.2-0.5,0.2-0.7,0.3c-0.3,0.2-0.5,0.2-0.8,0.3c-0.2,0.2-0.5,0.2-0.7,0.3
				c-0.2,0.2-0.5,0.3-0.7,0.3c-0.2,0.2-0.5,0.3-0.7,0.5c-0.2,0.2-0.5,0.3-0.7,0.5c-0.2,0.2-0.3,0.3-0.7,0.5c-0.3,0.3-0.8,0.7-1.1,1
				l-50,50c-6.4,6.4-6.4,16.7,0,23.1s16.7,6.4,23.1,0l22-22v677.8c0,9,7.4,16.4,16.4,16.4h677.8l-22,22c-6.4,6.4-6.4,16.7,0,23.1
				c3.3,3.3,7.4,4.8,11.6,4.8s8.4-1.6,11.6-4.8l50-50l0.2-0.2c0.2-0.2,0.5-0.3,0.7-0.7c0.2-0.2,0.2-0.3,0.3-0.3
				c0.2-0.3,0.5-0.7,0.7-1c0-0.2,0.2-0.2,0.2-0.3c0.2-0.3,0.5-0.7,0.7-1.1c0,0,0-0.2,0.2-0.2c0.2-0.3,0.5-0.8,0.7-1.3v-0.2
				c0.2-0.5,0.3-0.8,0.5-1.3v-0.2c0.2-0.5,0.3-1,0.3-1.3c0-0.2,0-0.3,0-0.5c0-0.3,0.2-0.8,0.2-1.1c0-0.5,0.2-1.1,0.2-1.6
				C799,1273.8,799,1273.1,798.8,1272.6z"/>
		</g>
	</g>
</g>
</svg>
