<?xml version="1.0" encoding="utf-8"?>
<!-- Generator: Adobe Illustrator 24.1.2, SVG Export Plug-In . SVG Version: 6.00 Build 0)  -->
<svg version="1.1" id="Layer_1" xmlns="http://www.w3.org/2000/svg" xmlns:xlink="http://www.w3.org/1999/xlink" x="0px" y="0px"
	 viewBox="0 0 100 102.9" style="enable-background:new 0 0 100 102.9;" xml:space="preserve">
<style type="text/css">
	.st0{fill-rule:evenodd;clip-rule:evenodd;}
</style>
<path class="st0" d="M50,2.5C23.8,2.5,2.5,23.8,2.5,50S23.8,97.5,50,97.5S97.5,76.2,97.5,50S76.2,2.5,50,2.5z M50,8.8
	c22.7,0,41.2,18.4,41.2,41.2S72.7,91.2,50,91.2S8.8,72.7,8.8,50S27.3,8.8,50,8.8z"/>
<path class="st0" d="M50,45.5L36.4,31.9c-1.2-1.2-3.2-1.2-4.5,0c-1.2,1.2-1.2,3.2,0,4.5L45.5,50L31.9,63.6c-1.2,1.2-1.2,3.2,0,4.5
	c1.2,1.2,3.2,1.2,4.5,0L50,54.5l13.6,13.6c1.2,1.2,3.2,1.2,4.5,0c1.2-1.2,1.2-3.2,0-4.5L54.5,50l13.6-13.6c1.2-1.2,1.2-3.2,0-4.5
	c-1.2-1.2-3.2-1.2-4.5,0L50,45.5z"/>
</svg>
