<?xml version="1.0" encoding="utf-8"?>
<!-- Generator: Adobe Illustrator 27.8.1, SVG Export Plug-In . SVG Version: 6.00 Build 0)  -->
<svg version="1.1" id="Capa_1" xmlns="http://www.w3.org/2000/svg" xmlns:xlink="http://www.w3.org/1999/xlink" x="0px" y="0px"
	 viewBox="0 0 800 800" style="enable-background:new 0 0 800 800;" xml:space="preserve">
<g id="XMLID_30_">
	<path id="XMLID_32_" d="M674.7,140H357.6c32.3,19.3,60.2,45.3,82,76h235.2c10.8,0,19.6,8.9,19.6,19.9v363.4
		c0,11-8.8,19.9-19.6,19.9H317.9c-10.8,0-19.6-8.9-19.6-19.9V357.1c-9-4.7-18.5-8.7-28.1-11.7c-5.7,17.9-18.1,33.2-35.1,42.3
		c-3.6,1.9-7.5,3.1-11.3,4.3v207.2c0,52.9,42.3,95.9,94.2,95.9h356.9c51.9,0,94.2-43,94.2-95.9V235.8C768.9,183,726.7,140,674.7,140
		z"/>
	<path id="XMLID_31_" d="M223.9,286.8c76.8,1.9,144.1,43,182.8,104.8c3.5,5.6,9.6,8.9,16,8.9c1.8,0,3.5-0.3,5.2-0.8
		c8-2.3,13.7-9.8,13.7-18.3c0-0.8,0-1.5,0-2.3c0-123.5-97-223.8-217.6-226.8v-35.9c0-8.4-4.5-16-11.8-19.9
		c-3.2-1.7-6.7-2.6-10.3-2.6c-4.4,0-8.8,1.3-12.5,3.9L39.5,202.4c-5.4,3.7-8.6,9.9-8.6,16.5c0,6.6,3.1,12.8,8.5,16.6l149.8,105.8
		c3.8,2.6,8.1,4,12.5,4c3.5,0,7-0.8,10.2-2.5c7.3-3.9,11.8-11.6,11.8-19.9L223.9,286.8L223.9,286.8z"/>
</g>
</svg>
