<?xml version="1.0" encoding="utf-8"?>
<!-- Generator: Adobe Illustrator 24.1.2, SVG Export Plug-In . SVG Version: 6.00 Build 0)  -->
<svg version="1.1" id="Layer_1" xmlns="http://www.w3.org/2000/svg" xmlns:xlink="http://www.w3.org/1999/xlink" x="0px" y="0px"
	 viewBox="0 0 32 30.8" style="enable-background:new 0 0 32 30.8;" xml:space="preserve">
<path d="M14,4c0-0.6-0.4-1-1-1h-0.5c-2,0-3.6,1.4-3.9,3.3l-1,5.7H6c-0.6,0-1,0.4-1,1s0.4,1,1,1h1.3L5.4,25.3c-0.2,1-1,1.7-2,1.7H3
	c-0.6,0-1,0.4-1,1s0.4,1,1,1h0.5c2,0,3.6-1.4,3.9-3.3L9.3,14H11c0.6,0,1-0.4,1-1s-0.4-1-1-1H9.7l0.9-5.4c0.2-1,1-1.7,2-1.7H13
	C13.5,5,14,4.5,14,4z"/>
<path d="M24.5,11.1c-0.5-0.3-1.1-0.2-1.4,0.3c0,0,0,0,0,0l-1.7,2.6l-1.6-2.6c-0.3-0.5-0.9-0.6-1.4-0.3c-0.5,0.3-0.6,0.9-0.3,1.4
	l2.2,3.5l-2.2,3.5c-0.3,0.5-0.2,1.1,0.3,1.4c0,0,0,0,0,0c0.5,0.3,1.1,0.2,1.4-0.3c0,0,0,0,0,0l1.6-2.6l1.6,2.6
	c0.3,0.5,0.9,0.6,1.4,0.3c0,0,0,0,0,0c0.5-0.3,0.6-0.9,0.3-1.4c0,0,0,0,0,0L22.7,16l2.2-3.5C25.1,12.1,25,11.4,24.5,11.1
	C24.5,11.2,24.5,11.2,24.5,11.1z"/>
<path d="M16.6,9.2c-0.4-0.3-1.1-0.2-1.4,0.2c-2.7,4-2.7,9.2,0,13.2c0.2,0.3,0.5,0.4,0.8,0.4c0.2,0,0.4-0.1,0.6-0.2
	c0.4-0.3,0.5-1,0.2-1.4c-2.2-3.3-2.2-7.5,0-10.8C17.1,10.2,17,9.5,16.6,9.2z"/>
<path d="M27.8,9.4c-0.3-0.4-1-0.5-1.4-0.2c-0.4,0.3-0.5,1-0.2,1.4c2.2,3.3,2.2,7.5,0,10.8c-0.3,0.4-0.2,1.1,0.2,1.4
	c0.2,0.1,0.4,0.2,0.6,0.2c0.3,0,0.6-0.1,0.8-0.4C30.5,18.6,30.5,13.4,27.8,9.4z"/>
</svg>
