<?xml version="1.0" encoding="utf-8"?>
<!-- Generator: Adobe Illustrator 24.1.2, SVG Export Plug-In . SVG Version: 6.00 Build 0)  -->
<svg version="1.1" id="Layer_1" xmlns="http://www.w3.org/2000/svg" xmlns:xlink="http://www.w3.org/1999/xlink" x="0px" y="0px"
	 viewBox="0 0 48.4 48.9" style="enable-background:new 0 0 48.4 48.9;" xml:space="preserve">
<path d="M2,0.4H0v47c0,0.5,0.4,1,1,1h47v-2H2V0.4z"/>
<path d="M18.9,25.9l7.3,7.3c0.2,0.2,0.4,0.3,0.7,0.3s0.5-0.1,0.7-0.3L45,15.9v4.6h2v-7h0c0-0.1,0-0.3-0.1-0.4
	c-0.2-0.4-0.5-0.6-0.9-0.6h-7v2h4.6L27,31.1l-7.3-7.3c-0.2-0.2-0.4-0.3-0.7-0.3s-0.5,0.1-0.7,0.3L4.3,37.7l1.4,1.4L18.9,25.9z"/>
</svg>
