<?xml version="1.0" encoding="utf-8"?>
<!-- Generator: Adobe Illustrator 24.1.2, SVG Export Plug-In . SVG Version: 6.00 Build 0)  -->
<svg version="1.1" id="Layer_1" xmlns="http://www.w3.org/2000/svg" xmlns:xlink="http://www.w3.org/1999/xlink" x="0px" y="0px"
	 viewBox="0 0 262.8 442" style="enable-background:new 0 0 262.8 442;" xml:space="preserve">
<style type="text/css">
	.st0{fill-rule:evenodd;clip-rule:evenodd;}
</style>
<g>
	<path class="st0" d="M131.4,326.7c27.9,0,50.6,22.7,50.6,50.6s-22.7,50.6-50.6,50.6s-50.6-22.7-50.6-50.6S103.5,326.7,131.4,326.7z
		"/>
	<path class="st0" d="M0.2,125.5c1.5-32.8,15.1-63.8,38.3-87C63.2,13.8,96.4,0,131.4,0s68.2,13.8,92.9,38.5
		c24.7,24.7,38.5,57.9,38.5,92.9c0,23.8-6.5,47-18.7,67.4c-12.2,20.4-29.8,37.1-50.8,48.4c-6,3.2-11.2,7.8-14.8,13.7
		c-3.5,5.9-5,12.7-5,19.6v10.5c0,3.8-3.1,6.9-6.9,6.9H96.1c-3.8,0-6.8-3.1-6.8-6.9v-10.5c0-22.2,5.7-43.7,17.1-62.7
		c11.4-19.1,27.8-34.2,47.3-44.6c7.6-4,13.9-10.1,18.3-17.5c4.4-7.3,6.6-15.7,6.6-24.2c0-12.6-4.9-24.5-13.8-33.4
		c-8.9-8.9-20.8-13.8-33.4-13.8S106.9,89.1,98,98c-8,8-12.8,18.5-13.7,29.8l-0.2,3.2c-0.3,3.6-3.3,6.4-6.9,6.4l-70.4-1.2
		c-1.9,0-3.6-0.8-4.9-2.2c-1.3-1.4-1.9-3.1-1.9-5L0.2,125.5L0.2,125.5z"/>
</g>
</svg>
