<?xml version="1.0" encoding="utf-8"?>
<!-- Generator: Adobe Illustrator 24.1.2, SVG Export Plug-In . SVG Version: 6.00 Build 0)  -->
<svg version="1.1" id="Layer_1" xmlns="http://www.w3.org/2000/svg" xmlns:xlink="http://www.w3.org/1999/xlink" x="0px" y="0px"
	 viewBox="0 0 90 60.4" style="enable-background:new 0 0 90 60.4;" xml:space="preserve">
<g>
	<path d="M90,18c0,3.3-2.7,6-6,6c-0.5,0-1.1-0.1-1.6-0.2l-8.1,12.1c0.8,1,1.3,2.3,1.3,3.7c0,3.3-2.7,6-6,6s-6-2.7-6-6
		c0-1.7,0.7-3.2,1.7-4.2L53.6,12c-0.3,0-0.5,0.1-0.8,0.1c-0.1,0-0.2,0-0.2,0L41,42.2c1.3,1.1,2.2,2.8,2.2,4.6c0,3.3-2.7,6-6,6
		s-6-2.7-6-6c0-1.5,0.6-2.9,1.5-4l-9.8-17.1c-0.4,0.1-0.8,0.1-1.2,0.1c-0.9,0-1.7-0.2-2.5-0.5l-7.8,8.3c0.4,0.8,0.7,1.8,0.7,2.8
		c0,3.3-2.7,6-6,6s-6-2.7-6-6s2.7-6,6-6c0.9,0,1.7,0.2,2.5,0.5l7.8-8.3c-0.4-0.8-0.7-1.8-0.7-2.8c0-3.3,2.7-6,6-6s6,2.7,6,6
		c0,1.5-0.6,2.9-1.5,4l9.8,17.1c0.4-0.1,0.8-0.1,1.2-0.1c0.1,0,0.2,0,0.2,0L49,10.6c-1.3-1.1-2.2-2.8-2.2-4.6c0-3.3,2.7-6,6-6
		s6,2.7,6,6c0,1.7-0.7,3.2-1.7,4.2l11.7,23.4c0.3,0,0.5-0.1,0.8-0.1c0.5,0,1.1,0.1,1.6,0.2l8.1-12.1c-0.8-1-1.3-2.3-1.3-3.7
		c0-3.3,2.7-6,6-6S90,14.7,90,18L90,18z"/>
</g>
</svg>
