<?xml version="1.0" encoding="utf-8"?>
<!-- Generator: Adobe Illustrator 24.1.2, SVG Export Plug-In . SVG Version: 6.00 Build 0)  -->
<svg version="1.1" id="Layer_1" xmlns="http://www.w3.org/2000/svg" xmlns:xlink="http://www.w3.org/1999/xlink" x="0px" y="0px"
	 viewBox="0 0 64 63.3" style="enable-background:new 0 0 64 63.3;" xml:space="preserve">
<g>
	<g>
		<circle cx="23" cy="42" r="2"/>
		<circle cx="34" cy="54" r="2"/>
		<circle cx="42" cy="42" r="2"/>
		<circle cx="26" cy="28" r="2"/>
		<circle cx="9" cy="50" r="2"/>
		<circle cx="54" cy="43" r="2"/>
		<circle cx="52" cy="17" r="2"/>
		<circle cx="41" cy="5" r="2"/>
		<circle cx="50" cy="30" r="2"/>
		<circle cx="20" cy="18" r="2"/>
		<circle cx="34" cy="14" r="2"/>
		<path d="M61,60H4V3c0-0.6-0.4-1-1-1S2,2.4,2,3v58c0,0.6,0.4,1,1,1h58c0.6,0,1-0.4,1-1S61.6,60,61,60z"/>
		<path d="M61,2C45.8,2,39.3,19.6,34,33.7c-2.3,6-4.4,11.7-6.8,14.7C19.7,57.8,7.3,56,7.2,56c-0.5-0.1-1,0.3-1.1,0.9
			c-0.1,0.5,0.3,1,0.8,1.1c1,0.1,2,0.2,3,0.2c4.5,0,13-1.1,18.9-8.6c2.6-3.2,4.7-8.8,7.1-15.3C40.9,20.8,47.2,4,61,4
			c0.6,0,1-0.4,1-1S61.6,2,61,2z"/>
	</g>
</g>
</svg>
